HIERARCHY
ROOT hip
{
	OFFSET 0.000000 0.000000 0.000000 
	CHANNELS 6 Xposition Yposition Zposition Xrotation Zrotation Yrotation
	JOINT abdomen
	{
		OFFSET 0.000000 3.402643 0.000000 
		CHANNELS 3 Xrotation Zrotation Yrotation
		JOINT chest
		{
			OFFSET 0.000000 8.438565 -0.680529 
			CHANNELS 3 Xrotation Zrotation Yrotation
			JOINT neck
			{
				OFFSET 0.000000 10.207942 -0.272212 
				CHANNELS 3 Xrotation Zrotation Yrotation
				JOINT head
				{
					OFFSET 0.000000 3.130431 0.000000 
					CHANNELS 3 Xrotation Zrotation Yrotation
					End Site
					{
						OFFSET 0.000000 3.130435 0.000000 
					}
				}
			}
			JOINT lCollar
			{
				OFFSET 3.470700 6.669187 -0.816635 
				CHANNELS 3 Yrotation Zrotation Xrotation
				JOINT lShldr
				{
					OFFSET 3.198488 0.000000 0.000000 
					CHANNELS 3 Zrotation Yrotation Xrotation
					JOINT lForeArm
					{
						OFFSET 10.139888 0.000000 0.000000 
						CHANNELS 3 Yrotation Zrotation Xrotation
						JOINT lHand
						{
							OFFSET 8.370511 0.000000 0.000000 
							CHANNELS 3 Zrotation Yrotation Xrotation
							End Site
							{
								OFFSET 4.083176 0.000000 0.000000 
							}
						}
					}
				}
			}
			JOINT rCollar
			{
				OFFSET -3.470700 6.669187 -0.816635 
				CHANNELS 3 Yrotation Zrotation Xrotation
				JOINT rShldr
				{
					OFFSET -3.198488 0.000000 0.000000 
					CHANNELS 3 Zrotation Yrotation Xrotation
					JOINT rForeArm
					{
						OFFSET -10.139888 0.000000 0.000000 
						CHANNELS 3 Yrotation Zrotation Xrotation
						JOINT rHand
						{
							OFFSET -8.370511 0.000000 0.000000 
							CHANNELS 3 Zrotation Yrotation Xrotation
							End Site
							{
								OFFSET -4.083176 0.000000 0.000000 
							}
						}
					}
				}
			}
		}
	}
	JOINT lThigh
	{
		OFFSET 5.308129 -1.633274 1.361059 
		CHANNELS 3 Xrotation Zrotation Yrotation
		JOINT lShin
		{
			OFFSET -2.041588 -20.007561 0.000000 
			CHANNELS 3 Xrotation Zrotation Yrotation
			JOINT lFoot
			{
				OFFSET 0.000000 -19.190928 -1.224953 
				CHANNELS 3 Xrotation Yrotation Zrotation
				End Site
				{
					OFFSET 0.000000 -2.449906 4.627600 
				}
			}
		}
	}
	JOINT rThigh
	{
		OFFSET -5.308129 -1.633274 1.361059 
		CHANNELS 3 Xrotation Zrotation Yrotation
		JOINT rShin
		{
			OFFSET 2.041588 -20.007561 0.000000 
			CHANNELS 3 Xrotation Zrotation Yrotation
			JOINT rFoot
			{
				OFFSET 0.000000 -19.190928 -1.224953 
				CHANNELS 3 Xrotation Yrotation Zrotation
				End Site
				{
					OFFSET 0.000000 -2.449906 4.627600 
				}
			}
		}
	}
}
MOTION
Frames: 13
Frame Time: 0.011111
39.998459 53.388409 50.317211 5.823425 2.143774 -88.178886 13.953331 4.192666 -2.179014 -22.051689 4.244356 -0.736901 -8.390305 -8.135539 -4.793505 18.231890 1.534154 -11.171746 2.971642 -4.490881 1.927035 -31.013100 -81.557060 19.389671 -102.543640 10.761576 41.621990 8.524705 12.647240 -56.907608 -4.704987 0.510038 2.448925 74.372673 29.672298 22.741093 47.957073 -7.210253 7.349807 -8.534408 -12.637552 55.345562 -1.650403 13.758138 3.308167 28.881584 -5.404331 -4.713756 -26.767427 -0.843099 -2.465979 1.718053 3.250592 1.491626 28.444756 5.404228 4.655017 -25.642393 -0.660077 1.893583 
40.002857 53.394058 50.339840 6.050273 2.346383 -88.200310 13.713373 4.669336 -2.316400 -21.885464 4.105995 -0.806360 -8.683619 -8.161593 -4.633966 18.396366 1.541794 -10.901344 2.971642 -4.490881 1.927035 -30.849537 -81.859543 19.155144 -102.480652 10.749550 41.597012 8.524705 12.647240 -57.337288 -4.704987 0.510038 2.448925 74.372871 29.819038 23.263069 48.237724 -7.284259 7.462611 -8.534408 -12.637552 55.892437 -2.031403 14.019414 3.281443 29.093952 -5.384418 -4.718510 -26.849712 -1.092135 -2.579343 1.679791 3.495712 1.448176 28.242748 5.423816 4.632463 -25.545279 -0.935779 1.779368 
40.016056 53.392807 50.354294 6.257258 2.434988 -88.630608 13.679507 5.032027 -2.208749 -21.954010 4.095275 -0.810810 -8.929169 -8.288031 -4.397183 18.859177 1.736655 -10.469723 2.971642 -4.490881 1.927035 -30.989893 -81.996513 19.048235 -102.460144 10.744394 41.583485 8.524705 12.647240 -57.727913 -4.704987 0.510038 2.448925 74.366051 29.721565 23.712280 48.611759 -7.378646 7.614493 -8.534408 -12.637552 56.595554 -2.089845 14.136087 3.184974 29.123110 -5.384470 -4.740551 -27.009281 -0.900329 -2.474876 1.600098 3.678491 1.629557 28.201567 5.433626 4.620586 -25.300220 -1.065402 1.751543 
40.013226 53.392487 50.365299 6.305612 2.577963 -89.109573 13.552176 5.180963 -2.262035 -22.081081 4.190081 -0.844040 -9.101131 -8.212148 -4.184174 19.291267 1.709211 -10.073560 2.971642 -4.490881 1.927035 -31.185953 -81.928459 18.882742 -102.576141 10.766786 41.644032 8.524705 12.647240 -57.815804 -4.704987 0.510038 2.448925 74.436028 29.571115 23.769625 48.902618 -7.446764 7.721329 -8.534408 -12.637552 56.722515 -2.099074 14.126253 3.166501 29.113699 -5.381315 -4.738917 -27.201939 -0.407233 -2.198877 1.444420 3.708444 1.909254 28.201561 5.433670 4.620596 -25.183493 -0.944097 1.820470 
40.009140 53.389977 50.385410 6.192376 2.597708 -89.458366 13.509346 5.153076 -2.432410 -22.090733 4.246127 -0.896330 -9.180490 -7.884543 -4.123433 19.326796 1.446999 -9.938715 2.971642 -4.490881 1.927035 -31.017792 -81.967255 18.638115 -102.693779 10.785323 41.694431 8.524705 12.647240 -57.474014 -4.704987 0.510038 2.448925 74.362167 29.809818 24.639572 48.580814 -7.370965 7.595281 -8.534408 -12.637552 57.620953 -1.932773 13.937372 3.136595 29.043837 -5.381227 -4.742487 -27.368389 -0.154190 -2.050423 1.354670 3.547983 2.093905 28.300667 5.434067 4.639149 -25.192503 -0.668666 1.944723 
40.010086 53.379292 50.408985 5.843610 2.373978 -89.635010 13.764186 4.899194 -2.772064 -22.070957 4.321219 -0.966878 -9.242446 -7.643795 -4.063837 19.213348 1.246148 -9.805828 2.971642 -4.490881 1.927035 -30.751085 -82.103523 18.344572 -102.724533 10.792497 41.707111 8.524705 12.647240 -57.288467 -4.704987 0.510038 2.448925 74.669380 30.028397 23.876165 48.590504 -7.369222 7.596840 -8.534408 -12.637552 56.927593 -1.523829 13.533338 3.243685 28.963011 -5.394855 -4.708808 -27.377632 -0.161495 -2.067034 1.492015 3.198766 2.415362 28.364197 5.413745 4.630821 -25.319870 -0.710663 1.917081 
40.015423 53.369858 50.426582 5.707220 2.166998 -89.784241 14.053694 4.889680 -2.961437 -22.129606 4.356874 -1.021959 -9.275438 -7.428382 -3.995105 19.083036 0.923487 -9.678145 2.971642 -4.490881 1.927035 -30.896921 -82.181915 18.325554 -102.756935 10.796871 41.721230 8.524705 12.647240 -57.317764 -4.704987 0.510038 2.448925 74.786583 30.120024 23.661360 48.663433 -7.388045 7.625882 -8.534408 -12.637552 56.839699 -1.162421 13.365429 3.429946 28.842167 -5.404206 -4.700522 -27.195080 -0.048514 -2.033973 1.649327 2.995944 2.161155 28.481554 5.423519 4.653284 -25.286364 -0.385576 2.074410 
39.996571 53.403179 50.418724 5.871968 2.635140 -90.350090 13.494144 5.077479 -2.681167 -22.031868 4.283316 -0.952350 -9.317135 -7.147604 -3.944477 19.116068 0.687714 -9.567144 2.971642 -4.490881 1.927035 -31.350811 -82.260757 18.610104 -102.873383 10.818040 41.781742 8.524705 12.647240 -57.317764 -4.704987 0.510038 2.448925 74.752045 29.916393 24.568647 49.006756 -7.471995 7.760253 -8.534408 -12.637552 57.757671 -1.454625 13.517084 3.584239 28.671782 -5.410439 -4.695895 -27.126791 0.404692 -1.815958 1.100255 3.107125 2.124540 28.643770 5.403522 4.673141 -25.098873 0.042028 2.274855 
39.995628 53.385578 50.433495 5.569391 2.529854 -90.815002 13.626490 4.802786 -2.732331 -22.061115 4.361328 -0.948482 -9.371304 -7.049038 -3.795058 19.076670 0.670475 -9.248835 2.971642 -4.490881 1.927035 -31.468334 -82.231628 18.561590 -102.981232 10.833216 41.831120 8.524705 12.647240 -57.415417 -4.704987 0.510038 2.448925 74.769745 29.739340 25.063162 49.319077 -7.547047 7.886263 -8.534408 -12.637552 57.933453 -1.093769 13.075745 3.456445 28.582254 -5.414334 -4.669631 -27.305212 0.928582 -1.537892 1.084430 2.793142 2.395051 28.754288 5.394810 4.690418 -25.117668 0.060496 2.287165 
40.006313 53.362949 50.453602 5.159675 2.241404 -91.196938 14.018000 4.429935 -2.947925 -22.109728 4.574170 -0.982059 -9.318391 -7.008248 -3.630629 18.687935 0.577787 -8.905168 2.971642 -4.490881 1.927035 -31.307411 -82.163040 18.209543 -103.034386 10.842050 41.855076 8.524705 12.647240 -57.434944 -4.704987 0.510038 2.448925 74.822777 29.491934 24.822247 49.830395 -7.669427 8.090211 -8.534408 -12.637552 57.435410 -0.576773 12.548265 3.487379 28.531860 -5.423894 -4.638365 -27.441957 0.946222 -1.513813 1.236262 2.317574 2.581314 28.843859 5.394186 4.698131 -25.140659 0.229695 2.352976 
40.008202 53.373951 50.475922 5.226082 2.289686 -91.383820 13.998284 4.659138 -3.049751 -22.080317 4.562588 -1.028029 -9.390397 -6.807607 -3.515055 18.524807 0.445960 -8.650362 2.971642 -4.490881 1.927035 -31.062199 -82.191956 17.759630 -103.130554 10.857383 41.903851 8.524705 12.647240 -57.220100 -4.704987 0.510038 2.448925 74.676109 29.695391 25.425392 49.392097 -7.564843 7.914662 -8.534408 -12.637552 57.962746 -0.586376 12.675400 3.899783 28.493414 -5.414233 -4.642328 -27.371670 0.440412 -1.780622 1.168504 2.386503 2.824862 28.962769 5.394428 4.718381 -25.208105 0.255944 2.359638 
40.013859 53.371429 50.493523 5.304222 2.369387 -91.608475 13.969412 4.919723 -3.038361 -22.001770 4.670386 -1.045506 -9.684397 -6.868605 -3.384591 18.664396 0.497422 -8.430992 2.971642 -4.490881 1.927035 -31.106556 -82.270157 17.378942 -103.278328 10.883000 41.967205 8.524705 12.647240 -57.005257 -4.704987 0.510038 2.448925 74.516655 29.860371 25.403116 49.183716 -7.515718 7.837280 -8.534408 -12.637552 57.952980 -0.644791 12.819728 4.429687 28.503357 -5.414219 -4.643200 -27.316349 0.089523 -1.951938 1.093126 2.459106 2.812949 29.014029 5.384992 4.721435 -25.129017 0.280876 2.363708 
40.020145 53.361694 50.493523 5.193473 2.338387 -92.036400 14.086067 4.828893 -2.825293 -21.913294 4.898995 -0.989840 -9.932717 -7.032184 -3.300791 18.657450 0.430662 -8.332985 2.971642 -4.490881 1.927035 -31.614777 -82.505280 17.419670 -103.397156 10.899154 42.027210 8.524705 12.647240 -57.015030 -4.704987 0.510038 2.448925 74.365807 30.005301 25.078568 49.152534 -7.508977 7.827614 -8.534408 -12.637552 57.913918 -0.527597 12.699896 4.713881 28.533066 -5.413156 -4.655182 -27.414700 0.106255 -1.929582 1.080910 2.288806 2.819568 28.974110 5.380219 4.745002 -24.944805 0.424390 2.478371 
